<mxfile host="app.diagrams.net" agent="Mozilla/5.0 (Windows NT 10.0; Win64; x64) AppleWebKit/537.36 (KHTML, like Gecko) Chrome/131.0.0.0 Safari/537.36" version="24.9.0">
  <diagram name="Página-1" id="9eiAQFG9WIgQE3nimeLH">
    <mxGraphModel dx="1290" dy="1691" grid="1" gridSize="10" guides="1" tooltips="1" connect="1" arrows="1" fold="1" page="1" pageScale="1" pageWidth="827" pageHeight="1169" math="0" shadow="0">
      <root>
        <mxCell id="0" />
        <mxCell id="1" parent="0" />
        <mxCell id="BMnigsDUBEjkv0MNzpHX-1" value="&lt;font style=&quot;vertical-align: inherit;&quot;&gt;&lt;font style=&quot;vertical-align: inherit;&quot;&gt;&lt;font style=&quot;vertical-align: inherit;&quot;&gt;&lt;font style=&quot;vertical-align: inherit; font-size: 18px;&quot;&gt;Lembrar&amp;nbsp;&lt;/font&gt;&lt;/font&gt;&lt;/font&gt;&lt;/font&gt;" style="rounded=0;whiteSpace=wrap;html=1;fillColor=#CCFFCC;" vertex="1" parent="1">
          <mxGeometry x="80" y="-440" width="180" height="80" as="geometry" />
        </mxCell>
        <mxCell id="BMnigsDUBEjkv0MNzpHX-2" value="&lt;div style=&quot;&quot;&gt;&lt;font style=&quot;font-size: 14px;&quot;&gt;Relacionado a reconhecer e reproduzir ideias e conteúdos.&amp;nbsp;&lt;/font&gt;&lt;/div&gt;" style="rounded=0;whiteSpace=wrap;html=1;fillColor=#CCFFCC;" vertex="1" parent="1">
          <mxGeometry x="280" y="-440" width="320" height="80" as="geometry" />
        </mxCell>
        <mxCell id="BMnigsDUBEjkv0MNzpHX-3" value="&lt;font style=&quot;font-size: 14px;&quot;&gt;Reconhecendo e Reproduzindo.&lt;/font&gt;" style="rounded=0;whiteSpace=wrap;html=1;fillColor=#CCFFCC;" vertex="1" parent="1">
          <mxGeometry x="610" y="-440" width="200" height="80" as="geometry" />
        </mxCell>
        <mxCell id="BMnigsDUBEjkv0MNzpHX-4" value="&lt;font style=&quot;vertical-align: inherit;&quot;&gt;&lt;font style=&quot;vertical-align: inherit;&quot;&gt;&lt;font style=&quot;vertical-align: inherit;&quot;&gt;&lt;font style=&quot;vertical-align: inherit; font-size: 18px;&quot;&gt;Compreensão&lt;/font&gt;&lt;/font&gt;&lt;/font&gt;&lt;/font&gt;" style="rounded=0;whiteSpace=wrap;html=1;fillColor=#CCFFCC;" vertex="1" parent="1">
          <mxGeometry x="80" y="-350" width="180" height="80" as="geometry" />
        </mxCell>
        <mxCell id="BMnigsDUBEjkv0MNzpHX-5" value="&lt;font style=&quot;vertical-align: inherit;&quot;&gt;&lt;font style=&quot;vertical-align: inherit;&quot;&gt;&lt;font style=&quot;vertical-align: inherit;&quot;&gt;&lt;font style=&quot;vertical-align: inherit; font-size: 18px;&quot;&gt;Aplicação&lt;/font&gt;&lt;/font&gt;&lt;/font&gt;&lt;/font&gt;" style="rounded=0;whiteSpace=wrap;html=1;fillColor=#CCFFCC;" vertex="1" parent="1">
          <mxGeometry x="80" y="-260" width="180" height="80" as="geometry" />
        </mxCell>
        <mxCell id="BMnigsDUBEjkv0MNzpHX-6" value="&lt;font style=&quot;vertical-align: inherit;&quot;&gt;&lt;font style=&quot;vertical-align: inherit;&quot;&gt;&lt;font style=&quot;vertical-align: inherit;&quot;&gt;&lt;font style=&quot;vertical-align: inherit;&quot;&gt;&lt;font style=&quot;vertical-align: inherit;&quot;&gt;&lt;font style=&quot;vertical-align: inherit; font-size: 18px;&quot;&gt;Análise&lt;/font&gt;&lt;/font&gt;&lt;/font&gt;&lt;/font&gt;&lt;/font&gt;&lt;/font&gt;" style="rounded=0;whiteSpace=wrap;html=1;fillColor=#CCFFCC;" vertex="1" parent="1">
          <mxGeometry x="80" y="-170" width="180" height="80" as="geometry" />
        </mxCell>
        <mxCell id="BMnigsDUBEjkv0MNzpHX-7" value="&lt;font style=&quot;vertical-align: inherit;&quot;&gt;&lt;font style=&quot;vertical-align: inherit;&quot;&gt;&lt;font style=&quot;vertical-align: inherit;&quot;&gt;&lt;font style=&quot;vertical-align: inherit; font-size: 18px;&quot;&gt;Avaliação&lt;/font&gt;&lt;/font&gt;&lt;/font&gt;&lt;/font&gt;" style="rounded=0;whiteSpace=wrap;html=1;fillColor=#CCFFCC;" vertex="1" parent="1">
          <mxGeometry x="80" y="-80" width="180" height="80" as="geometry" />
        </mxCell>
        <mxCell id="BMnigsDUBEjkv0MNzpHX-8" value="&lt;font style=&quot;vertical-align: inherit;&quot;&gt;&lt;font style=&quot;vertical-align: inherit;&quot;&gt;&lt;font style=&quot;vertical-align: inherit;&quot;&gt;&lt;font style=&quot;vertical-align: inherit; font-size: 18px;&quot;&gt;Criar&lt;/font&gt;&lt;/font&gt;&lt;/font&gt;&lt;/font&gt;" style="rounded=0;whiteSpace=wrap;html=1;fillColor=#CCFFCC;" vertex="1" parent="1">
          <mxGeometry x="80" y="10" width="180" height="80" as="geometry" />
        </mxCell>
        <mxCell id="BMnigsDUBEjkv0MNzpHX-10" value="&lt;font style=&quot;vertical-align: inherit;&quot;&gt;&lt;font style=&quot;vertical-align: inherit; font-size: 14px;&quot;&gt;Interpretando, Exemplificando, Classificando, Resumindo, Inferindo,&lt;br&gt;Comparando e Explicando&lt;/font&gt;&lt;/font&gt;" style="rounded=0;whiteSpace=wrap;html=1;fillColor=#CCFFCC;" vertex="1" parent="1">
          <mxGeometry x="610" y="-350" width="200" height="80" as="geometry" />
        </mxCell>
        <mxCell id="BMnigsDUBEjkv0MNzpHX-11" value="&lt;font style=&quot;vertical-align: inherit;&quot;&gt;&lt;font style=&quot;vertical-align: inherit; font-size: 14px;&quot;&gt;Executando e Implementando&lt;/font&gt;&lt;/font&gt;" style="rounded=0;whiteSpace=wrap;html=1;fillColor=#CCFFCC;" vertex="1" parent="1">
          <mxGeometry x="610" y="-260" width="200" height="80" as="geometry" />
        </mxCell>
        <mxCell id="BMnigsDUBEjkv0MNzpHX-12" value="&lt;font style=&quot;vertical-align: inherit;&quot;&gt;&lt;font style=&quot;vertical-align: inherit; font-size: 14px;&quot;&gt;Diferenciando, Organizando, Atribuindo e Concluindo.&lt;/font&gt;&lt;/font&gt;" style="rounded=0;whiteSpace=wrap;html=1;fillColor=#CCFFCC;" vertex="1" parent="1">
          <mxGeometry x="610" y="-170" width="200" height="80" as="geometry" />
        </mxCell>
        <mxCell id="BMnigsDUBEjkv0MNzpHX-13" value="&lt;font style=&quot;vertical-align: inherit;&quot;&gt;&lt;font style=&quot;vertical-align: inherit; font-size: 14px;&quot;&gt;Checando e Criticando.&lt;/font&gt;&lt;/font&gt;" style="rounded=0;whiteSpace=wrap;html=1;fillColor=#CCFFCC;" vertex="1" parent="1">
          <mxGeometry x="610" y="-80" width="200" height="80" as="geometry" />
        </mxCell>
        <mxCell id="BMnigsDUBEjkv0MNzpHX-14" value="&lt;font style=&quot;vertical-align: inherit;&quot;&gt;&lt;font style=&quot;vertical-align: inherit; font-size: 14px;&quot;&gt; Generalizando, Planejando e Produzindo&lt;/font&gt;&lt;/font&gt;&lt;div&gt;&lt;font style=&quot;vertical-align: inherit;&quot;&gt;&lt;font style=&quot;vertical-align: inherit;&quot;&gt;&lt;br&gt;&lt;/font&gt;&lt;/font&gt;&lt;/div&gt;" style="rounded=0;whiteSpace=wrap;html=1;fillColor=#CCFFCC;" vertex="1" parent="1">
          <mxGeometry x="610" y="10" width="200" height="80" as="geometry" />
        </mxCell>
        <mxCell id="BMnigsDUBEjkv0MNzpHX-16" value="&lt;div style=&quot;&quot;&gt;&lt;span style=&quot;font-size: 14px; background-color: initial;&quot;&gt;Habilidade de compreender e dar significado ao conteúdo. Traduzir, compreebder ou interpretar informações com base em conhecimento prévio.&lt;/span&gt;&lt;/div&gt;" style="rounded=0;whiteSpace=wrap;html=1;align=center;fillColor=#CCFFCC;" vertex="1" parent="1">
          <mxGeometry x="280" y="-350" width="320" height="80" as="geometry" />
        </mxCell>
        <mxCell id="BMnigsDUBEjkv0MNzpHX-17" value="&lt;div style=&quot;&quot;&gt;&lt;span style=&quot;font-size: 14px; background-color: initial;&quot;&gt;Relacionado a executar ou usar um procedimento numa situação específica e pode também abordar&lt;/span&gt;&lt;/div&gt;&lt;font style=&quot;font-size: 14px;&quot;&gt;&lt;div style=&quot;&quot;&gt;&lt;span style=&quot;background-color: initial;&quot;&gt;a aplicação de um conhecimento numa situação nova&lt;/span&gt;&lt;/div&gt;&lt;/font&gt;" style="rounded=0;whiteSpace=wrap;html=1;align=center;fillColor=#CCFFCC;" vertex="1" parent="1">
          <mxGeometry x="280" y="-260" width="320" height="80" as="geometry" />
        </mxCell>
        <mxCell id="BMnigsDUBEjkv0MNzpHX-18" value="&lt;div style=&quot;&quot;&gt;&lt;span style=&quot;font-size: 14px; background-color: initial;&quot;&gt;Relacionado a dividir a informação em partes relevantes e irrelevantes, importantes e menos&lt;/span&gt;&lt;/div&gt;&lt;font style=&quot;font-size: 14px;&quot;&gt;&lt;div style=&quot;&quot;&gt;&lt;span style=&quot;background-color: initial;&quot;&gt;importantes e entender a inter-relação existente entre as parte&lt;/span&gt;&lt;/div&gt;&lt;/font&gt;" style="rounded=0;whiteSpace=wrap;html=1;align=center;fillColor=#CCFFCC;" vertex="1" parent="1">
          <mxGeometry x="280" y="-170" width="320" height="80" as="geometry" />
        </mxCell>
        <mxCell id="BMnigsDUBEjkv0MNzpHX-19" value="&lt;div style=&quot;&quot;&gt;&lt;span style=&quot;background-color: initial;&quot;&gt;&lt;font style=&quot;font-size: 14px;&quot;&gt;Relacionado a realizar julgamentos baseados em critérios e padrões qualitativos e quantitativos ou de&lt;/font&gt;&lt;/span&gt;&lt;/div&gt;&lt;font size=&quot;3&quot; style=&quot;vertical-align: inherit;&quot;&gt;&lt;div style=&quot;&quot;&gt;&lt;span style=&quot;background-color: initial;&quot;&gt;eficiência e eficácia&lt;/span&gt;&lt;/div&gt;&lt;/font&gt;" style="rounded=0;whiteSpace=wrap;html=1;align=center;fillColor=#CCFFCC;" vertex="1" parent="1">
          <mxGeometry x="280" y="-80" width="320" height="80" as="geometry" />
        </mxCell>
        <mxCell id="BMnigsDUBEjkv0MNzpHX-20" value="&lt;div style=&quot;&quot;&gt;&lt;span style=&quot;background-color: initial;&quot;&gt;&lt;font style=&quot;font-size: 14px;&quot;&gt;Significa colocar elementos junto com o objetivo de criar uma nova visão, nova solução, estrutura&lt;/font&gt;&lt;/span&gt;&lt;/div&gt;&lt;font size=&quot;3&quot; style=&quot;vertical-align: inherit;&quot;&gt;&lt;div style=&quot;&quot;&gt;&lt;span style=&quot;background-color: initial;&quot;&gt;ou modelo utilizando conhecimentos e habilidades previamente adquiridos.&lt;/span&gt;&lt;/div&gt;&lt;/font&gt;" style="rounded=0;whiteSpace=wrap;html=1;fillColor=#CCFFCC;align=center;" vertex="1" parent="1">
          <mxGeometry x="280" y="10" width="320" height="80" as="geometry" />
        </mxCell>
        <mxCell id="BMnigsDUBEjkv0MNzpHX-22" value="&lt;font style=&quot;vertical-align: inherit;&quot;&gt;&lt;font style=&quot;vertical-align: inherit;&quot;&gt;&lt;font style=&quot;vertical-align: inherit;&quot;&gt;&lt;font style=&quot;vertical-align: inherit; font-size: 24px;&quot;&gt;Nível&lt;/font&gt;&lt;/font&gt;&lt;/font&gt;&lt;/font&gt;" style="rounded=0;whiteSpace=wrap;html=1;fillColor=#99FFFF;" vertex="1" parent="1">
          <mxGeometry x="80" y="-530" width="180" height="80" as="geometry" />
        </mxCell>
        <mxCell id="BMnigsDUBEjkv0MNzpHX-23" value="&lt;font style=&quot;vertical-align: inherit;&quot;&gt;&lt;font style=&quot;vertical-align: inherit; font-size: 24px;&quot;&gt;Definição&lt;/font&gt;&lt;/font&gt;" style="rounded=0;whiteSpace=wrap;html=1;fillColor=#99FFFF;" vertex="1" parent="1">
          <mxGeometry x="280" y="-530" width="320" height="80" as="geometry" />
        </mxCell>
        <mxCell id="BMnigsDUBEjkv0MNzpHX-24" value="&lt;font style=&quot;vertical-align: inherit;&quot;&gt;&lt;font style=&quot;vertical-align: inherit; font-size: 24px;&quot;&gt;Verbos&lt;/font&gt;&lt;/font&gt;" style="rounded=0;whiteSpace=wrap;html=1;fillColor=#99FFFF;" vertex="1" parent="1">
          <mxGeometry x="610" y="-530" width="200" height="80" as="geometry" />
        </mxCell>
      </root>
    </mxGraphModel>
  </diagram>
</mxfile>
